<?xml version="1.0" encoding="UTF-8" standalone="no"?><!DOCTYPE svg PUBLIC "-//W3C//DTD SVG 1.1//EN" "http://www.w3.org/Graphics/SVG/1.1/DTD/svg11.dtd"><svg width="100%" height="100%" viewBox="0 0 283 283" version="1.1" xmlns="http://www.w3.org/2000/svg" xmlns:xlink="http://www.w3.org/1999/xlink" xml:space="preserve" xmlns:serif="http://www.serif.com/" style="fill-rule:evenodd;clip-rule:evenodd;stroke-linejoin:round;stroke-miterlimit:2;"><rect id="ArtBoard1" x="0" y="0" width="283" height="283" style="fill:#fff;"/><g><g id="Ebene-1" serif:id="Ebene 1"><path id="path4" d="M0,0l283.465,0l0,28.346l-94.677,0l-14.173,-14.173l-66.047,0l-14.173,14.173l-94.394,0l0,-28.346l-0.001,0Z" style="fill-rule:nonzero;"/><path id="path5" d="M0,283.465l0,-283.465l28.346,0l0,94.677l-14.173,14.173l0,66.047l14.173,14.173l0,94.394l-28.346,0l0,0.001Z" style="fill-rule:nonzero;"/><path id="path6" d="M283.465,0l0,283.465l-28.346,0l0,-94.677l14.173,-14.173l0,-66.047l-14.173,-14.173l0,-94.394l28.346,0l0,-0.001Z" style="fill-rule:nonzero;"/><path id="path7" d="M283.465,283.465l-283.465,0l0,-28.346l94.677,0l14.173,14.173l66.047,0l14.173,-14.173l94.394,0l0,28.346l0.001,0Z" style="fill-rule:nonzero;"/><g id="text7"><text x="29.921px" y="197.441px" style="font-family:'LEMONMILK-Medium', 'LEMON MILK';font-weight:500;font-size:201.575px;">S</text></g><g id="text8"><text x="143.657px" y="243.08px" style="font-family:'LEMONMILK-Medium', 'LEMON MILK';font-weight:500;font-size:179.178px;">E</text></g><circle id="path9" cx="43.937" cy="235.276" r="8.504"/><circle id="path10" cx="72.283" cy="235.276" r="8.504"/></g></g></svg>